<?xml version="1.0" encoding="UTF-8"?>
<!-- Created with Inkscape (http://www.inkscape.org/) -->
<svg width="1035.8" height="1235.7" version="1.1" viewBox="0 0 1035.8 1235.7" xml:space="preserve" xmlns="http://www.w3.org/2000/svg" xmlns:cc="http://creativecommons.org/ns#" xmlns:dc="http://purl.org/dc/elements/1.1/" xmlns:rdf="http://www.w3.org/1999/02/22-rdf-syntax-ns#" xmlns:xlink="http://www.w3.org/1999/xlink"><metadata><rdf:RDF><cc:Work rdf:about=""><dc:format>image/svg+xml</dc:format><dc:type rdf:resource="http://purl.org/dc/dcmitype/StillImage"/><dc:title/></cc:Work></rdf:RDF></metadata><defs><clipPath id="clipPath30"><path d="m401.33 1041.6c-26.335-11.184-74.993-35.692-74.993-35.692-66.207-42.246-115.39-259.78-115.39-259.78 22.068-8.828 151.96-30.896 151.96-30.896l10.373-233.77-11.003-312.91c210.6-22.069 481.1-0.629 481.1-0.629l-9.4 321.8 11.291 218.58 142.5 35.309s-51.075 204.3-90.17 242.76c-39.095 38.462-189.16 97.103-189.16 97.103-158.26-15.763-200.51 1.892-200.51 1.892-6.306-1.892-106.6-43.757-106.6-43.757"/></clipPath><radialGradient id="radialGradient40" cx="0" cy="0" r="1" gradientTransform="matrix(427.55 0 0 -427.55 599.36 621.96)" gradientUnits="userSpaceOnUse"><stop stop-color="#fff" offset="0"/><stop stop-color="#f4f4f4" offset="1"/></radialGradient><clipPath id="clipPath50"><path d="m0 1218.9h1218.9v-1218.9h-1218.9z"/></clipPath><clipPath id="clipPath58"><path d="m507.71 1085.4h200.73v-181.11h-200.73z"/></clipPath><clipPath id="clipPath62"><path d="m615.76 1077.1c-41.317-1.181-85.607 0.375-107.82 8.216-0.721-16.617-5.013-114.25 97.988-181.1 0 0 99.069 61.347 102.52 179.21 0 0-44.304-4.939-92.687-6.324"/></clipPath><radialGradient id="radialGradient68" cx="0" cy="0" r="1" gradientTransform="matrix(95.586 0 0 -95.586 608.08 994.8)" gradientUnits="userSpaceOnUse"><stop stop-color="#f4f4f4" offset="0"/><stop stop-color="#deddde" offset="1"/></radialGradient><clipPath id="clipPath90"><path d="m845.4 708.42 67.638 16.656-44.592 128c-7.355-10.787-23.046-144.65-23.046-144.65"/></clipPath><linearGradient id="linearGradient100" x2="1" gradientTransform="matrix(-66.84 -24.328 -24.328 66.84 891.63 789.39)" gradientUnits="userSpaceOnUse"><stop stop-color="#fbfbfb" offset="0"/><stop stop-color="#c1c0c1" offset="1"/></linearGradient><clipPath id="clipPath110"><path d="m295.58 727.35 67.526-12.288s-15.691 133.86-23.046 144.65z"/></clipPath><linearGradient id="linearGradient120" x2="1" gradientTransform="matrix(66.841 -24.328 24.328 66.841 316.19 794.13)" gradientUnits="userSpaceOnUse"><stop stop-color="#f8f8f8" offset="0"/><stop stop-color="#d7d7d7" offset="1"/></linearGradient></defs><g transform="matrix(1.3333 0 0 -1.3333 -281.27 1447.1)"><g clip-path="url(#clipPath30)"><path d="m401.33 1041.6c-26.335-11.184-74.993-35.692-74.993-35.692-66.207-42.246-115.39-259.78-115.39-259.78 22.068-8.828 151.96-30.896 151.96-30.896l10.373-233.77-11.003-312.91c210.6-22.069 481.1-0.629 481.1-0.629l-9.4 321.8 11.291 218.58 142.5 35.309s-51.075 204.3-90.17 242.76c-39.095 38.462-189.16 97.103-189.16 97.103-158.26-15.763-200.51 1.892-200.51 1.892-6.306-1.892-106.6-43.757-106.6-43.757" fill="url(#radialGradient40)"/></g><g clip-path="url(#clipPath50)"><g clip-path="url(#clipPath58)" opacity=".75"><g clip-path="url(#clipPath62)"><path d="m615.76 1077.1c-41.317-1.181-85.607 0.375-107.82 8.216-0.721-16.617-5.013-114.25 97.988-181.1 0 0 99.069 61.347 102.52 179.21 0 0-44.304-4.939-92.687-6.324" fill="url(#radialGradient68)"/></g></g></g><g clip-path="url(#clipPath90)"><path d="m845.4 708.42 67.638 16.656-44.592 128c-7.355-10.787-23.046-144.65-23.046-144.65" fill="url(#linearGradient100)"/></g><g clip-path="url(#clipPath110)"><path d="m295.58 727.35 67.526-12.288s-15.691 133.86-23.046 144.65z" fill="url(#linearGradient120)"/></g></g></svg>
