<?xml version="1.0" encoding="UTF-8" standalone="no"?>
<!-- Created with Inkscape (http://www.inkscape.org/) -->

<svg
   xmlns:dc="http://purl.org/dc/elements/1.1/"
   xmlns:cc="http://creativecommons.org/ns#"
   xmlns:rdf="http://www.w3.org/1999/02/22-rdf-syntax-ns#"
   xmlns:svg="http://www.w3.org/2000/svg"
   xmlns="http://www.w3.org/2000/svg"
   xmlns:sodipodi="http://sodipodi.sourceforge.net/DTD/sodipodi-0.dtd"
   xmlns:inkscape="http://www.inkscape.org/namespaces/inkscape"
   width="854.07538mm"
   height="697.70929mm"
   viewBox="0 0 854.07538 697.70929"
   version="1.1"
   id="svg138"
   inkscape:version="0.92.4 5da689c313, 2019-01-14"
   sodipodi:docname="t-shirt2.svg">
  <defs
     id="defs132" />
  <sodipodi:namedview
     id="base"
     pagecolor="#ffffff"
     bordercolor="#666666"
     borderopacity="1.0"
     inkscape:pageopacity="0.0"
     inkscape:pageshadow="2"
     inkscape:zoom="0.0875"
     inkscape:cx="2512.7353"
     inkscape:cy="389.05768"
     inkscape:document-units="mm"
     inkscape:current-layer="layer1"
     showgrid="false"
     inkscape:window-width="1356"
     inkscape:window-height="718"
     inkscape:window-x="0"
     inkscape:window-y="18"
     inkscape:window-maximized="0" />
  <metadata
     id="metadata135">
    <rdf:RDF>
      <cc:Work
         rdf:about="">
        <dc:format>image/svg+xml</dc:format>
        <dc:type
           rdf:resource="http://purl.org/dc/dcmitype/StillImage" />
        <dc:title></dc:title>
      </cc:Work>
    </rdf:RDF>
  </metadata>
  <g
     inkscape:label="Layer 1"
     inkscape:groupmode="layer"
     id="layer1"
     transform="translate(377.14482,280.90821)">
    <path
       d="m -229.12398,26.933485 0.032,-2.9e-5 V 416.64232 H 301.12609 V 26.933456 l 0.032,2.9e-5 0.0146,-0.02177 89.49942,-4.546524 58.29501,-166.650201 -183.77292,-64.28507 -140.59111,-49.43548 c 0,52.34857 -39.644124,94.78548 -88.554836,94.78548 h -0.07198 c -48.910708,0 -88.554831,-42.43691 -88.554831,-94.78548 l -140.591133,49.43548 -183.77291,64.28507 58.29505,166.650211 89.49942,4.546524 z"
       id="path52"
       inkscape:connector-curvature="0"
       style="fill:#e3e3e3;stroke:#000000;stroke-width:0.3174704" />
    <path
       d="m -52.48915,-258.00148 c 0,52.34857 39.644122,94.78546 88.55484,94.78546 h 0.07198 c 48.910721,0 88.55484,-42.43689 88.55484,-94.78546 -58.156832,12.37678 -117.1532861,13.03415 -177.125044,0 h -0.05602 z"
       id="path54"
       inkscape:connector-curvature="0"
       style="fill:#e3e3e3;stroke:#000000;stroke-width:0.3174704" />
    <path
       d="m -229.09199,26.933456 c 39.0528,-72.627569 55.41014,-150.510476 35.96565,-235.504576 M 301.20288,26.933456 C 262.15008,-45.694113 245.79275,-123.57702 265.23723,-208.57112"
       id="path60"
       inkscape:connector-curvature="0"
       style="fill:none;stroke:#000000;stroke-width:0.3174704" />
  </g>
  <g
     inkscape:groupmode="layer"
     id="layer2"
     inkscape:label="filter"
     style="display:inline">
    <rect
       style="opacity:0.12999998;vector-effect:none;fill:#008080;fill-opacity:1;stroke:none;stroke-width:0.35277775;stroke-linecap:butt;stroke-linejoin:miter;stroke-miterlimit:4;stroke-dasharray:none;stroke-dashoffset:0;stroke-opacity:1"
       id="rect161"
       width="1130.9048"
       height="940.40472"
       x="-127"
       y="-91.504997" />
  </g>
</svg>
