<?xml version="1.0" encoding="UTF-8"?>
<!-- Created with Inkscape (http://www.inkscape.org/) -->
<svg width="4.1427mm" height="4.1425mm" version="1.1" viewBox="0 0 4.1427 4.1425" xmlns="http://www.w3.org/2000/svg" xmlns:cc="http://creativecommons.org/ns#" xmlns:dc="http://purl.org/dc/elements/1.1/" xmlns:rdf="http://www.w3.org/1999/02/22-rdf-syntax-ns#" xmlns:xlink="http://www.w3.org/1999/xlink">
 <defs>
  <filter id="t" x="-.027149" y="-.02715" width="1.0543" height="1.0543">
   <feColorMatrix result="bluralpha" values="1 0 0 0 0 0 1 0 0 0 0 0 1 0 0 0 0 0 0,329000 0"/>
   <feOffset dx="4,000000" dy="4,000000" in="bluralpha" result="offsetBlur"/>
   <feMerge>
    <feMergeNode in="offsetBlur"/>
    <feMergeNode in="SourceGraphic"/>
   </feMerge>
  </filter>
 </defs>
 <metadata>
  <rdf:RDF>
   <cc:Work rdf:about="">
    <dc:format>image/svg+xml</dc:format>
    <dc:type rdf:resource="http://purl.org/dc/dcmitype/StillImage"/>
    <dc:title/>
   </cc:Work>
  </rdf:RDF>
 </metadata>
 <g transform="translate(-17.894 -13.747)">
  <g transform="matrix(.017116 0 0 .017116 12.078 12.631)" fill="#fc0" filter="url(#t)">
   <path transform="translate(2,-2)" d="m533.33 190.46c0 42.079-34.112 76.19-76.19 76.19s-76.19-34.112-76.19-76.19 34.112-76.19 76.19-76.19 76.19 34.112 76.19 76.19z"/>
   <path d="m462.88 71.438s-14.444 12.015-6.1747 23.924c4.641 6.6839-19.827 5.0804-9.0842 26.681 2.1205 4.2637 23.265 18.562 15.846 7.5697s28.406-24.648 3.798-37.673c-13.171-6.9713 0.93833-19.962-4.3849-20.501z"/>
   <path d="m505.59 80.508s-17.885 5.7522-14.661 19.888c1.8095 7.9334-20.29-2.6904-18.39 21.359 0.37502 4.7471 14.651 25.907 11.873 12.939s35.555-12.258 17.591-33.53c-9.615-11.385 8.3243-18.168 3.5875-20.656z"/>
   <path d="m541.69 104.74s-18.742-1.3116-21.006 13.009c-1.2706 8.0374-17.834-10.043-25.014 12.988-1.4172 4.5461 3.9656 29.497 6.2098 16.426s37.564 1.843 28.798-24.584c-4.6915-14.144 14.483-13.769 11.012-17.84z"/>
   <path d="m566.59 141.61s-16.835-8.3401-24.375 4.0441c-4.2315 6.9504-12.675-16.07-28.074 2.5005-3.0395 3.6656-7.5492 28.789-0.50323 17.554s34.041 15.989 35.983-11.786c1.0395-14.866 18.631-7.227 16.969-12.313z"/>
   <path d="m575.61 185.78s-12.324-14.18-24.052-5.6554c-6.5819 4.7846-5.5084-19.712-26.871-8.5046-4.2168 2.2123-18.054 23.661-7.225 16.006s25.257 27.866 37.747 2.9817c6.6846-13.319 19.978 0.50604 20.402-4.8277z"/>
   <path d="m567.07 229.67s-5.9711-17.814-20.066-14.416c-7.9106 1.9067 2.4413-20.321-21.583-18.126-4.7422 0.43322-25.725 14.967-12.792 12.031s12.694 35.402 33.743 17.178c11.266-9.7539 18.268 8.1008 20.698 3.3339z"/>
   <path d="m542.47 266.9s1.2724-18.745-13.053-20.978c-8.04-1.2537 10.005-17.855-13.041-24.987-4.5491-1.4077-29.489 4.0274-16.413 6.2442s-1.7643 37.568 24.644 28.747c14.134-4.7211 13.799 14.455 17.863 10.974z"/>
   <path d="m503.35 292.83s8.6683-16.669-3.5658-24.449c-6.8662-4.3668 16.315-12.358-1.9501-28.117-3.6054-3.1108-28.636-8.1116-17.541-0.847s-16.653 33.721 11.079 36.207c14.842 1.3305 6.8606 18.769 11.978 17.207z"/>
   <path d="m460.84 301s14.224-12.274 5.7413-24.032c-4.761-6.599 19.732-5.4379 8.6006-26.841-2.1972-4.2247-23.596-18.139-15.98-7.2821s-27.956 25.157-3.1166 37.736c13.295 6.7321-0.57745 19.976 4.7547 20.419z"/>
   <path d="m418.57 292.94s17.745-6.1726 14.188-20.228c-1.9962-7.8885 20.348 2.2109 17.881-21.787-0.48694-4.737-15.258-25.554-12.175-12.655s-35.256 13.094-16.794 33.936c9.881 11.155-7.8933 18.359-3.0991 20.735z"/>
   <path d="m383.01 270.6s18.777 0.6216 20.513-13.773c0.9742-8.0786 18.191 9.3803 24.519-13.899 1.2491-4.5952-5.0475-29.331-6.8096-16.187s-37.606-0.46052-27.875 25.626c5.2084 13.962-13.967 14.292-10.348 18.233z"/>
   <path d="m418.17 79.64s-8.6472 16.679 3.5967 24.445c6.8717 4.3581-16.3 12.379 1.9856 28.115 3.6094 3.1062 28.646 8.0754 17.542 0.8248s16.61-33.742-11.124-36.193c-14.844-1.3117-6.8844-18.761-12-17.191z"/>
   <path d="m380.43 104.27s-1.5604 18.723 12.729 21.177c8.0198 1.3772-10.279 17.699 12.655 25.184 4.5269 1.4775 29.547-3.5735 16.507-5.9911s2.3417-37.536-24.199-29.122c-14.205 4.5033-13.575-14.665-17.693-11.248z"/>
   <path d="m354.43 143.13s6.035 17.792 20.118 14.344c7.9037-1.9351-2.3684 20.33 21.648 18.049 4.7406-0.45025 25.671-15.06 12.749-12.077s-12.821-35.356-33.805-17.057c-11.231 9.7943-18.297-8.0352-20.71-3.2596z"/>
   <path d="m346.04 187.44s12.424 14.094 24.091 5.4865c6.5482-4.8306 5.6466 19.673 26.93 8.3158 4.2012-2.2418 17.888-23.787 7.1125-16.056s-25.452-27.688-37.767-2.7167c-6.5909 13.365-19.981-0.36583-20.367 4.9707z"/>
   <path d="m354.7 229.97s16.768 8.4745 24.406-3.8489c4.287-6.9163 12.546 16.171 28.093-2.2758 3.0688-3.6412 7.7792-28.728 0.64363-17.549s-33.912-16.261-36.076 11.498c-1.1584 14.857-18.689 7.0777-17.067 12.176z"/>
  </g>
 </g>
</svg>
